# File created by Blade
# Date/Time:  Thu Sep 25 15:31:15 2014
# Frame Rate: 120.000 fps
#------------------------------------------------------
:FULLY-SPECIFIED
:DEGREES
246
root 21.772399 32.948756 1.464621 177.308554 -77.959062 -163.154384
Spine -6.643006 12.000441 0.208599
Head 11.150951 -7.851181 5.686049
LeftShoulder -13.136573 26.609459 13.386453
LeftArm 15.086309 3.965896 -70.485337
LeftForeArm 0.066343 -0.000000 18.855056
LeftHand -26.456052 -0.000000 7.885270
LeftHandThumb1 -26.253704 0.000000 33.147579
RightShoulder -16.173368 10.159237 -25.104485
RightArm -13.188128 -21.455960 83.417838
RightForeArm -26.531597 -0.000000 18.138432
RightHand -3.003734 -0.000000 2.718251
RightHandThumb1 -24.326973 -0.000000 -32.862282
LeftUpLeg -15.618106 1.533781 -0.980627
LeftLeg 10.588555 -0.000000 -0.000000
LeftFoot -19.418332 19.024750 -17.234746
LeftToeBase 4.283246 -0.000000 -0.000000
RightUpLeg -14.411424 -6.507275 1.699187
RightLeg 26.340799 -0.000000 -0.000000
RightFoot -17.599855 -9.007085 3.913424
RightToeBase -3.981809 -0.000000 0.000000
247
root 21.891170 32.953517 1.401381 177.276555 -77.826916 -162.933867
Spine -6.662021 12.058272 0.160159
Head 10.977157 -7.802688 5.681139
LeftShoulder -12.966619 26.524109 13.442158
LeftArm 15.112068 3.995892 -70.385306
LeftForeArm 0.140939 -0.000000 18.928431
LeftHand -26.722299 -0.000000 7.773223
LeftHandThumb1 -26.253704 0.000000 33.147579
RightShoulder -16.060876 10.252927 -25.086992
RightArm -13.178735 -21.638949 83.503499
RightForeArm -26.563724 0.000000 18.065330
RightHand -2.996464 0.000000 2.658658
RightHandThumb1 -24.326973 -0.000000 -32.862282
LeftUpLeg -16.060049 1.230065 -0.695559
LeftLeg 10.765553 -0.000000 -0.000000
LeftFoot -19.510292 19.407605 -17.511128
LeftToeBase 4.333705 -0.000000 -0.000000
RightUpLeg -13.772224 -6.881684 2.041637
RightLeg 24.310480 -0.000000 -0.000000
RightFoot -17.661233 -8.920102 3.477177
RightToeBase -2.246592 -0.000000 0.000000
248
root 22.013053 32.956467 1.325043 177.001481 -77.676566 -162.470195
Spine -6.661488 12.055514 0.163823
Head 10.816239 -7.664458 5.650995
LeftShoulder -12.875950 26.529402 13.445360
LeftArm 15.225558 4.131689 -70.226999
LeftForeArm 0.317948 -0.000000 18.956315
LeftHand -26.900529 -0.000000 8.052427
LeftHandThumb1 -26.253704 0.000000 33.147579
RightShoulder -15.890668 10.300069 -25.058507
RightArm -13.053083 -21.801744 83.596493
RightForeArm -26.714741 0.000000 17.949920
RightHand -2.878646 0.000000 2.642378
RightHandThumb1 -24.326973 -0.000000 -32.862282
LeftUpLeg -16.731051 1.731296 -0.496022
LeftLeg 11.411196 -0.000000 -0.000000
LeftFoot -19.535563 19.081789 -17.491226
LeftToeBase 4.249364 -0.000000 -0.000000
RightUpLeg -13.179927 -7.179054 2.461410
RightLeg 22.436607 -0.000000 -0.000000
RightFoot -17.489945 -8.856708 2.794640
RightToeBase -2.038876 -0.000000 0.000000
249
root 22.137088 32.959583 1.255291 177.043293 -77.530609 -162.300520
Spine -6.696568 12.108431 0.082101
Head 10.642423 -7.614835 5.674183
LeftShoulder -12.767194 26.607249 13.460758
LeftArm 15.462182 4.123112 -70.065694
LeftForeArm 0.097195 -0.000000 18.944829
LeftHand -26.797529 -0.000000 7.931860
LeftHandThumb1 -26.253704 0.000000 33.147579
RightShoulder -15.751137 10.336433 -25.015218
RightArm -12.940911 -22.035184 83.685852
RightForeArm -26.886588 0.000000 17.837061
RightHand -2.803114 0.000000 2.536013
RightHandThumb1 -24.326973 -0.000000 -32.862282
LeftUpLeg -17.343270 1.912323 -0.318119
LeftLeg 11.813672 -0.000000 -0.000000
LeftFoot -19.444623 19.117408 -17.415963
LeftToeBase 4.077001 -0.000000 -0.000000
RightUpLeg -12.743132 -7.541113 2.809399
RightLeg 20.778203 -0.000000 -0.000000
RightFoot -17.338031 -8.724193 2.388696
RightToeBase -1.822797 -0.000000 0.000000
250
root 22.261492 32.960805 1.178836 176.762882 -77.399015 -161.809173
Spine -6.711324 12.139421 0.105050
Head 10.494734 -7.480061 5.637325
LeftShoulder -12.660011 26.608458 13.444042
LeftArm 15.620200 4.202507 -69.877054
LeftForeArm 0.163060 0.000000 19.026267
LeftHand -26.932343 -0.000000 7.999383
LeftHandThumb1 -26.253704 0.000000 33.147579
RightShoulder -15.600469 10.371234 -24.995352
RightArm -12.831023 -22.325806 83.778095
RightForeArm -27.128619 -0.000000 17.729122
RightHand -2.568371 -0.000000 2.367333
RightHandThumb1 -24.326973 -0.000000 -32.862282
LeftUpLeg -17.883859 1.908709 -0.006206
LeftLeg 12.143831 -0.000000 -0.000000
LeftFoot -19.513844 19.233254 -17.556143
LeftToeBase 4.148890 -0.000000 -0.000000
RightUpLeg -12.289881 -7.775875 3.227013
RightLeg 19.055562 -0.000000 -0.000000
RightFoot -17.092911 -8.769717 1.874088
RightToeBase -1.861070 -0.000000 0.000000
251
root 22.385136 32.963616 1.117541 177.079845 -77.253258 -161.923864
Spine -6.723605 12.183161 -0.016994
Head 10.341612 -7.404442 5.626215
LeftShoulder -12.565798 26.516628 13.414317
LeftArm 15.756713 4.403101 -69.622490
LeftForeArm 0.127640 -0.000000 19.021497
LeftHand -27.101616 -0.000000 8.135404
LeftHandThumb1 -26.253704 0.000000 33.147579
RightShoulder -15.454322 10.424662 -24.927302
RightArm -12.694335 -22.651994 83.829199
RightForeArm -27.161124 -0.000000 17.681581
RightHand -2.722492 0.000000 2.380222
RightHandThumb1 -24.326973 -0.000000 -32.862282
LeftUpLeg -18.317522 1.544530 0.256119
LeftLeg 12.261638 -0.000000 -0.000000
LeftFoot -19.592779 19.609627 -17.926524
LeftToeBase 4.176508 -0.000000 -0.000000
RightUpLeg -11.913503 -7.881767 3.465970
RightLeg 17.418012 -0.000000 -0.000000
RightFoot -16.840794 -8.698833 1.306182
RightToeBase -1.786099 -0.000000 0.000000
252
root 22.509550 32.963135 1.042883 176.945883 -77.128114 -161.619624
Spine -6.678714 12.212812 -0.023272
Head 10.184838 -7.262070 5.601567
LeftShoulder -12.412579 26.472243 13.377044
LeftArm 15.894997 4.485253 -69.385731
LeftForeArm 0.085571 -0.000000 19.067105
LeftHand -27.340763 -0.000000 8.320252
LeftHandThumb1 -26.253704 0.000000 33.147579
RightShoulder -15.294573 10.478694 -24.860816
RightArm -12.521814 -22.966093 83.856003
RightForeArm -27.009337 -0.000000 17.729052
RightHand -3.235621 -0.000000 2.600215
RightHandThumb1 -24.326973 -0.000000 -32.862282
LeftUpLeg -18.923682 1.543556 0.537530
LeftLeg 12.868890 -0.000000 -0.000000
LeftFoot -19.851667 19.689107 -18.271590
LeftToeBase 4.500543 -0.000000 -0.000000
RightUpLeg -11.554118 -8.166184 3.823878
RightLeg 15.842168 -0.000000 -0.000000
RightFoot -16.466129 -8.483452 0.664985
RightToeBase -1.470674 -0.000000 0.000000
253
root 22.656448 32.962159 0.964439 176.639927 -77.097566 -161.067220
Spine -6.642341 12.155826 0.002947
Head 9.939056 -7.147271 5.612854
LeftShoulder -12.291239 26.461554 13.381841
LeftArm 16.172599 4.620452 -69.176928
LeftForeArm 0.176327 -0.000000 19.059836
LeftHand -27.273288 0.000000 8.192019
LeftHandThumb1 -26.253704 0.000000 33.147579
RightShoulder -15.132178 10.610970 -24.839133
RightArm -12.397233 -23.277801 83.926214
RightForeArm -27.005360 -0.000000 17.672662
RightHand -3.211229 0.000000 2.679215
RightHandThumb1 -24.326973 -0.000000 -32.862282
LeftUpLeg -19.631020 1.517383 0.863470
LeftLeg 13.358019 -0.000000 -0.000000
LeftFoot -19.759491 19.716978 -18.242742
LeftToeBase 4.260440 -0.000000 -0.000000
RightUpLeg -11.429641 -8.497895 4.264247
RightLeg 14.556347 -0.000000 -0.000000
RightFoot -16.138283 -8.338481 0.162683
RightToeBase -0.825493 -0.000000 0.000000
254
root 22.791874 32.958462 0.891167 176.502400 -77.012258 -160.745486
Spine -6.562879 12.184427 0.005036
Head 9.727183 -7.014699 5.622677
LeftShoulder -12.139433 26.341925 13.403176
LeftArm 16.358872 4.720848 -68.990632
LeftForeArm 0.276541 -0.000000 19.034467
LeftHand -27.189657 -0.000000 8.101510
LeftHandThumb1 -26.253704 0.000000 33.147579
RightShoulder -15.001848 10.672385 -24.802528
RightArm -12.184471 -23.638080 83.944496
RightForeArm -27.059927 -0.000000 17.565911
RightHand -3.178996 -0.000000 2.703112
RightHandThumb1 -24.326973 -0.000000 -32.862282
LeftUpLeg -20.205755 1.332414 1.193709
LeftLeg 13.807575 -0.000000 -0.000000
LeftFoot -19.968756 19.936826 -18.594971
LeftToeBase 4.508200 -0.000000 -0.000000
RightUpLeg -11.259686 -8.720334 4.618767
RightLeg 13.356304 -0.000000 -0.000000
RightFoot -15.817148 -8.181435 -0.318241
RightToeBase -0.544371 -0.000000 0.000000
255
root 22.925426 32.952808 0.813403 176.244366 -76.900133 -160.334061
Spine -6.454506 12.222128 0.041752
Head 9.545454 -6.933966 5.600983
LeftShoulder -11.955819 26.204044 13.453333
LeftArm 16.484877 4.821940 -68.824575
LeftForeArm 0.379830 -0.000000 19.042804
LeftHand -27.171213 -0.000000 7.977639
LeftHandThumb1 -26.253704 0.000000 33.147579
RightShoulder -14.819384 10.721981 -24.756531
RightArm -11.951340 -24.012982 83.949975
RightForeArm -27.105310 -0.000000 17.444189
RightHand -2.987836 -0.000000 2.715600
RightHandThumb1 -24.326973 -0.000000 -32.862282
LeftUpLeg -20.812781 1.541836 1.435937
LeftLeg 14.362669 -0.000000 -0.000000
LeftFoot -20.119241 19.895855 -18.784744
LeftToeBase 4.707929 -0.000000 -0.000000
RightUpLeg -11.076999 -8.848587 4.991501
RightLeg 12.201851 -0.000000 -0.000000
RightFoot -15.487882 -8.027985 -0.743886
RightToeBase -0.861376 -0.000000 0.000000
256
root 23.057130 32.946513 0.739059 176.124931 -76.787483 -160.072241
Spine -6.338014 12.278014 0.044765
Head 9.361278 -6.824366 5.588518
LeftShoulder -11.773324 26.115195 13.507990
LeftArm 16.676298 4.897657 -68.664418
LeftForeArm 0.552745 -0.000000 19.041754
LeftHand -27.092118 0.000000 7.752467
LeftHandThumb1 -26.253704 0.000000 33.147579
RightShoulder -14.673236 10.756090 -24.697450
RightArm -11.692155 -24.410683 83.938265
RightForeArm -27.170211 -0.000000 17.372056
RightHand -3.034433 -0.000000 2.773354
RightHandThumb1 -24.326973 -0.000000 -32.862282
LeftUpLeg -21.373555 1.631053 1.681788
LeftLeg 14.848836 -0.000000 -0.000000
LeftFoot -20.207962 19.977563 -18.902967
LeftToeBase 4.834426 -0.000000 -0.000000
RightUpLeg -10.910886 -8.814397 5.297968
RightLeg 11.157835 -0.000000 -0.000000
RightFoot -15.221279 -7.877339 -1.073370
RightToeBase -1.004050 -0.000000 0.000000
257
root 23.193067 32.936802 0.666397 176.018501 -76.676980 -159.828696
Spine -6.193861 12.351097 0.050693
Head 9.153473 -6.692526 5.620265
LeftShoulder -11.552540 25.952340 13.598442
LeftArm 16.809520 4.962896 -68.521977
LeftForeArm 0.849062 -0.000000 19.037852
LeftHand -27.046598 0.000000 7.475790
LeftHandThumb1 -26.253704 0.000000 33.147579
RightShoulder -14.533762 10.896434 -24.688488
RightArm -11.528828 -24.838970 83.974447
RightForeArm -27.257265 0.000000 17.280453
RightHand -2.986678 -0.000000 2.839630
RightHandThumb1 -24.326973 -0.000000 -32.862282
LeftUpLeg -21.993028 1.788841 1.891139
LeftLeg 15.442513 -0.000000 -0.000000
LeftFoot -20.296305 20.031899 -18.978960
LeftToeBase 4.879234 -0.000000 -0.000000
RightUpLeg -10.783175 -8.785133 5.591610
RightLeg 10.187761 -0.000000 -0.000000
RightFoot -14.971330 -7.785901 -1.306291
RightToeBase -0.809888 -0.000000 0.000000
258
root 23.328664 32.925803 0.596291 175.941387 -76.572363 -159.605470
Spine -6.066537 12.392804 0.070455
Head 8.969836 -6.585378 5.597442
LeftShoulder -11.434357 25.874360 13.647189
LeftArm 17.092475 5.162192 -68.343267
LeftForeArm 1.014479 -0.000000 19.005074
LeftHand -26.943008 -0.000000 7.317583
LeftHandThumb1 -26.253704 0.000000 33.147579
RightShoulder -14.382556 10.930371 -24.669518
RightArm -11.209613 -25.263553 83.939965
RightForeArm -27.276425 0.000000 17.175099
RightHand -2.917687 -0.000000 2.969035
RightHandThumb1 -24.326973 -0.000000 -32.862282
LeftUpLeg -22.600662 1.893712 2.111625
LeftLeg 15.987577 -0.000000 -0.000000
LeftFoot -20.358661 20.108242 -19.086648
LeftToeBase 4.876849 -0.000000 -0.000000
RightUpLeg -10.740232 -8.754511 5.869854
RightLeg 9.417833 -0.000000 -0.000000
RightFoot -14.825784 -7.553106 -1.384080
RightToeBase -0.209919 -0.000000 0.000000
